# xmcd
#
# Track frame offsets:
#	150
#	23670
#	52452
#	82700
#	110282
#	161570
#	197932
#	213797
#	243075
#	262440
#	287812
#
# Disc length: 4361 seconds
# Revision: 0
# Processed by: cddbd v1.5.2PL0 Copyright (c) Steve Scherf et al.
# Submitted via: dBpowerAMP V12.0
#
DISCID=9a11070b
DTITLE=John Lee Hooker - Endless Boogie
DYEAR=1971
DGENRE=Blues
TTITLE0=(I Got) A Good 'Un
TTITLE1=House Rent Boogie
TTITLE2=Kick Hit 4 Hit Kix U (Blues for Jimi and Janis)
TTITLE3=Standin' at the Crossroads
TTITLE4=Pots on, Gas on High
TTITLE5=We Might as Well Call It Through (I Didn't Get Married to Your Two-Timiing Mother)
TTITLE6=Doin' the Shout
TTITLE7=A Sheep Out on the Foam
TTITLE8=I Don't Need No Steam Heat
TTITLE9=Sittin' in My Dark Room
TTITLE10=Endless Boogie, Parts 27 and 28
EXTD=
EXTT0=
EXTT1=
EXTT2=
EXTT3=
EXTT4=
EXTT5=
EXTT6=
EXTT7=
EXTT8=
EXTT9=
EXTT10=
PLAYORDER=
